<?xml version="1.0" ?><!DOCTYPE svg  PUBLIC '-//W3C//DTD SVG 1.1//EN'  'http://www.w3.org/Graphics/SVG/1.1/DTD/svg11.dtd'><svg height="2048px" style="shape-rendering:geometricPrecision; text-rendering:geometricPrecision; image-rendering:optimizeQuality; fill-rule:evenodd; clip-rule:evenodd" viewBox="0 0 2048 2048" width="2048px" xml:space="preserve" xmlns="http://www.w3.org/2000/svg" xmlns:xlink="http://www.w3.org/1999/xlink"><defs><style type="text/css">
   <![CDATA[
    .fil2 {fill:none}
    .fil1 {fill:#686868}
    .fil0 {fill:#88E53B}
   ]]>
  </style></defs><g id="Layer_x0020_1"><g id="_336351968"><rect class="fil0" height="1536" id="_336351992" rx="219.428" ry="219.428" width="1536" x="256" y="256"/><g><path class="fil1" d="M760.613 706.484l-188.57 -0.187795c-3.65906,0.281103 -7.31812,-0.936615 -10.1315,-3.65551 -4.97363,-4.96772 -4.97363,-12.9366 0,-17.9043l9.00473 8.90434 -9.00473 -8.90434 237.917 -239.146c2.25,-2.71654 5.72245,-4.49764 9.66261,-4.49764 6.94134,-0.0011811 12.6638,5.71772 12.6638,12.7476l0 192.741c0,3.2811 -1.31339,6.65552 -3.84449,9.09213l-0.0956694 0 -48.1264 46.5933c-2.34567,2.62559 -5.72363,4.21772 -9.47481,4.21772l0 0z" id="_336351368"/><path class="fil1" d="M1383.93 1046.78c-3.09921,1.87795 -6.66142,2.25236 -9.8504,1.40669l-12.1996 -2.25c-27.861,-5.15433 -71.7662,-12.9354 -106.572,-18.4642 -23.4543,-3.75237 -42.5929,-6.47008 -48.9721,-6.47008l0 -0.0944883 -7.12914 0 0 0.0944883c-6.94134,0 -12.665,-5.71654 -12.665,-12.7488 0,-0.846851 0.0944883,-1.68662 0.281103,-2.44016l0.937796 -6.37205c0.281103,-2.34685 6.18898,-39.8422 25.6099,-65.5264 11.2606,-14.8146 26.7402,-25.9689 48.0367,-25.9689 12.665,-0.0011811 26.2642,5.25119 40.8059,15.6532 13.1374,9.47127 27.1169,23.3445 42.0319,41.6221 20.9221,25.7823 36.2138,51.0957 37.0571,52.5945l0.0933072 0 0.0944883 0.187795 0.0933072 0.187795 0.0933072 0.0933072 0.0944883 0.186614 0.0933072 0.090945 0 0.0968505 0.0944883 0.281103 0.0933072 0 6.19134 10.5 0.0968505 0c3.56221,5.99646 1.59331,13.7799 -4.41024,17.3398zm120.273 -319.576c-17.9232,-77.0587 -39.5918,-106.869 -53.6622,-126.181 -0.283465,-0.37441 -0.47126,-0.751182 -0.752363,-1.0311 -1.2189,-1.6878 -2.44016,-3.37559 -3.9437,-5.4378 -1.21772,-1.87441 -2.43543,-3.65551 -3.47008,-5.52993 -10.6937,-18.3744 -42.3095,-37.5933 -78.2422,-52.3099 -37.9016,-15.4689 -81.4323,-26.6232 -110.139,-26.6232l-139.126 0c-6.56812,-10.0323 -28.2425,-39.8422 -66.9875,-60.7477 -23.5488,-12.6555 -53.5689,-22.2177 -90.345,-22.2177 -21.202,0 -39.026,1.87559 -53.6622,5.62559 -15.7606,4.02874 -27.8622,10.311 -36.4016,18.9354 -17.5441,17.8122 -17.3528,40.1244 -17.1662,63.7465l12.665 -0.0933072 -12.665 0.188977 0 0.0921261c0,0.37441 0,0.751182 0,1.12441l0 6.09449 0 163.304 -45.0331 47.5288 -221.124 0c-3.00118,0 -5.81693,1.12441 -7.97363,2.90551 -7.03701,5.24882 -31.0536,25.1232 -47.5654,60.3745 -9.47599,20.3386 -16.6051,45.7465 -16.6051,76.2131 0,8.34449 0.468898,60.3733 10.8815,127.119 5.72363,36.1843 14.2606,76.5886 27.3012,116.431 19.2319,59.0599 44.2819,105.37 74.7721,138.647 31.2414,34.1268 68.1095,54.5599 110.421,61.1233 15.5717,2.43898 30.3957,4.22008 44.1863,5.34567 14.3551,1.21772 28.1457,1.77992 41.2784,1.77992 53.6634,0 91.8485,-9.75001 118.865,-22.7823 56.7615,-27.3721 65.8571,-72.091 65.8571,-72.743 0.0011811,-36.9378 0.563386,-82.8721 0.941339,-109.778 23.7331,36 81.4312,109.024 158.549,109.024 37.1481,0 75.3308,9.93662 104.134,29.0622 27.489,18.3744 46.1575,45.1878 46.1575,79.969l-0.0921261 0 0 108.369 0 0.183071c-0.843308,13.0335 -5.82048,32.1579 -18.2953,45.6567 -8.25709,8.99883 -20.2666,15.4689 -37.0583,15.4689l-122.15 0c-3.2811,-2.81457 -10.6949,-9.56221 -18.104,-19.5969 -9.2882,-12.3732 -18.3886,-29.6209 -18.3886,-49.4941 0,-21.6543 5.06693,-34.2166 12.1961,-41.0611 6.75355,-6.37205 15.9484,-8.25001 24.4866,-8.25001 6.66024,0 12.4772,0.191339 17.3575,0.47126 1.31221,0 17.6351,1.12441 17.6351,1.40669 7.50473,0.745276 13.9807,-5.15788 13.9807,-12.6579l0 -79.3075c0,-7.59686 -6.66024,-13.5012 -14.2618,-12.5634 -90.6249,3.93898 -186.693,44.9953 -186.693,148.773 0,65.5252 19.9843,108.652 47.5666,136.773 42.6839,43.5933 102.822,50.3445 136.031,50.3445l127.776 0c1.12441,0 2.25236,-0.187795 3.28465,-0.467717 6.47245,-1.12795 31.3335,-6.75119 62.0115,-26.0634 17.5429,-11.061 37.1516,-26.6221 56.6682,-48.5611 41.8406,-47.0611 69.4217,-107.525 87.1512,-171.552 23.0776,-83.4367 29.5536,-172.865 29.5536,-246.926 0,-203.333 -14.1673,-324.827 -31.8024,-400.105z" id="_336351800"/></g></g></g><rect class="fil2" height="2048" width="2048"/></svg>